<?xml version="1.0" encoding="UTF-8" standalone="no"?>
<svg
   xmlns:dc="http://purl.org/dc/elements/1.1/"
   xmlns:cc="http://creativecommons.org/ns#"
   xmlns:rdf="http://www.w3.org/1999/02/22-rdf-syntax-ns#"
   xmlns:svg="http://www.w3.org/2000/svg"
   xmlns="http://www.w3.org/2000/svg"
   id="svg10"
   version="1.1"
   viewBox="0 0 39.476429 17.733552"
   height="230"
   width="512">
  <metadata
     id="metadata16">
    <rdf:RDF>
      <cc:Work
         rdf:about="">
        <dc:format>image/svg+xml</dc:format>
        <dc:type
           rdf:resource="http://purl.org/dc/dcmitype/StillImage" />
        <dc:title></dc:title>
      </cc:Work>
    </rdf:RDF>
  </metadata>
  <defs
     id="defs14" />
  <g
     transform="matrix(0.25185381,0,0,0.25185381,-3.9734277,-15.457438)"
     style="clip-rule:evenodd;fill-rule:evenodd;fill:#ffffff"
     id="g8">
    <path
       style="fill:#ffffff;fill-opacity:0"
       id="path2"
       d="M 0,0 H 192.756 V 192.756 H 0 Z" />
    <path
       style="fill:#ffffff"
       id="path6"
       d="m 75.542,61.651 -3.913,24.26 H 44.826 l 4.109,-24.26 H 28.392 l -11.934,70.04 H 37 l 4.891,-28.562 h 26.804 l -4.892,28.562 H 84.15 l 11.934,-70.04 z m 69.649,0 h -39.129 l -2.738,16.239 h 38.541 c 7.043,0 9.979,1.956 8.414,10.956 l -2.348,14.674 c -1.371,7.434 -4.893,11.934 -12.521,11.934 h -17.805 l 4.891,-29.542 h -20.541 l -7.631,45.78 h 41.672 c 21.326,0 29.738,-8.998 32.869,-28.172 l 2.543,-14.674 c 3.326,-19.761 -4.89,-27.195 -26.217,-27.195 z" />
  </g>
</svg>
